<mxfile host="65bd71144e">
    <diagram id="fVynLPhgFkxLo3xJQSuN" name="Page-1">
        <mxGraphModel dx="2013" dy="-132" grid="1" gridSize="10" guides="1" tooltips="1" connect="1" arrows="1" fold="1" page="1" pageScale="1" pageWidth="827" pageHeight="1169" math="0" shadow="0">
            <root>
                <mxCell id="0"/>
                <mxCell id="1" parent="0"/>
                <mxCell id="72" value="&lt;span style=&quot;color: rgb(0, 0, 0);&quot;&gt;FluidLocker.provideLiquidity()&lt;/span&gt;" style="edgeStyle=none;html=1;" parent="1" source="73" target="75" edge="1">
                    <mxGeometry relative="1" as="geometry"/>
                </mxCell>
                <mxCell id="73" value="Available" style="ellipse;whiteSpace=wrap;html=1;aspect=fixed;" parent="1" vertex="1">
                    <mxGeometry x="408" y="1739" width="80" height="80" as="geometry"/>
                </mxCell>
                <mxCell id="74" value="" style="edgeStyle=none;html=1;exitX=0.5;exitY=1;exitDx=0;exitDy=0;" parent="1" source="73" target="76" edge="1">
                    <mxGeometry x="0.2857" y="20" relative="1" as="geometry">
                        <mxPoint as="offset"/>
                        <Array as="points"/>
                    </mxGeometry>
                </mxCell>
                <mxCell id="95" value="FluidLocker.stake()" style="edgeLabel;html=1;align=center;verticalAlign=middle;resizable=0;points=[];" vertex="1" connectable="0" parent="74">
                    <mxGeometry x="0.3548" y="-3" relative="1" as="geometry">
                        <mxPoint x="3" y="-15" as="offset"/>
                    </mxGeometry>
                </mxCell>
                <mxCell id="75" value="LP&#39;d" style="ellipse;whiteSpace=wrap;html=1;aspect=fixed;" parent="1" vertex="1">
                    <mxGeometry x="658" y="1739" width="80" height="80" as="geometry"/>
                </mxCell>
                <mxCell id="76" value="Staked" style="ellipse;whiteSpace=wrap;html=1;aspect=fixed;" parent="1" vertex="1">
                    <mxGeometry x="408" y="1959" width="80" height="80" as="geometry"/>
                </mxCell>
                <mxCell id="77" value="" style="edgeStyle=none;html=1;rounded=0;curved=1;exitX=0;exitY=1;exitDx=0;exitDy=0;" parent="1" source="79" edge="1">
                    <mxGeometry relative="1" as="geometry">
                        <mxPoint x="420" y="1749" as="targetPoint"/>
                        <Array as="points">
                            <mxPoint x="328" y="1669"/>
                        </Array>
                    </mxGeometry>
                </mxCell>
                <mxCell id="78" value="FluidLocker.lock()" style="edgeLabel;html=1;align=center;verticalAlign=middle;resizable=0;points=[];" parent="77" vertex="1" connectable="0">
                    <mxGeometry x="-0.0851" y="-4" relative="1" as="geometry">
                        <mxPoint x="25" y="-20" as="offset"/>
                    </mxGeometry>
                </mxCell>
                <mxCell id="79" value="Floating" style="ellipse;whiteSpace=wrap;html=1;aspect=fixed;" parent="1" vertex="1">
                    <mxGeometry x="408" y="1519" width="80" height="80" as="geometry"/>
                </mxCell>
                <mxCell id="80" value="" style="curved=1;endArrow=classic;html=1;entryX=0;entryY=1;entryDx=0;entryDy=0;exitX=0;exitY=0;exitDx=0;exitDy=0;" parent="1" source="76" target="73" edge="1">
                    <mxGeometry width="50" height="50" relative="1" as="geometry">
                        <mxPoint x="228" y="2089" as="sourcePoint"/>
                        <mxPoint x="278" y="1929" as="targetPoint"/>
                        <Array as="points">
                            <mxPoint x="288" y="1889"/>
                        </Array>
                    </mxGeometry>
                </mxCell>
                <mxCell id="81" value="FluidLocker.unstake()" style="edgeLabel;html=1;align=center;verticalAlign=middle;resizable=0;points=[];" parent="80" vertex="1" connectable="0">
                    <mxGeometry x="0.4167" y="-28" relative="1" as="geometry">
                        <mxPoint x="-15" y="-20" as="offset"/>
                    </mxGeometry>
                </mxCell>
                <mxCell id="82" value="" style="curved=1;endArrow=classic;html=1;exitX=0;exitY=1;exitDx=0;exitDy=0;" parent="1" source="75" target="73" edge="1">
                    <mxGeometry width="50" height="50" relative="1" as="geometry">
                        <mxPoint x="668" y="1829" as="sourcePoint"/>
                        <mxPoint x="476" y="1777" as="targetPoint"/>
                        <Array as="points">
                            <mxPoint x="568" y="1869"/>
                        </Array>
                    </mxGeometry>
                </mxCell>
                <mxCell id="83" value="FluidLocker.&lt;span style=&quot;color: rgb(0, 0, 0);&quot;&gt;withdrawLiquidity()&lt;/span&gt;" style="edgeLabel;html=1;align=center;verticalAlign=middle;resizable=0;points=[];" parent="82" vertex="1" connectable="0">
                    <mxGeometry x="0.4167" y="-28" relative="1" as="geometry">
                        <mxPoint x="24" y="18" as="offset"/>
                    </mxGeometry>
                </mxCell>
                <mxCell id="84" value="" style="curved=0;endArrow=classic;html=1;exitX=0.5;exitY=0;exitDx=0;exitDy=0;entryX=0.5;entryY=1;entryDx=0;entryDy=0;rounded=0;" parent="1" source="73" target="79" edge="1">
                    <mxGeometry width="50" height="50" relative="1" as="geometry">
                        <mxPoint x="488" y="1779" as="sourcePoint"/>
                        <mxPoint x="488" y="1609" as="targetPoint"/>
                        <Array as="points"/>
                    </mxGeometry>
                </mxCell>
                <mxCell id="85" value="FluidLocker.unlock()" style="edgeLabel;html=1;align=center;verticalAlign=middle;resizable=0;points=[];" parent="84" vertex="1" connectable="0">
                    <mxGeometry x="0.4167" y="-28" relative="1" as="geometry">
                        <mxPoint x="-8" y="49" as="offset"/>
                    </mxGeometry>
                </mxCell>
                <mxCell id="86" value="" style="edgeStyle=none;html=1;entryX=0.5;entryY=0;entryDx=0;entryDy=0;" parent="1" source="88" target="89" edge="1">
                    <mxGeometry relative="1" as="geometry">
                        <mxPoint x="158" y="1569" as="targetPoint"/>
                    </mxGeometry>
                </mxCell>
                <mxCell id="87" value="SupTokenL2.mint()" style="edgeLabel;html=1;align=center;verticalAlign=middle;resizable=0;points=[];" parent="86" vertex="1" connectable="0">
                    <mxGeometry x="-0.0432" y="-2" relative="1" as="geometry">
                        <mxPoint as="offset"/>
                    </mxGeometry>
                </mxCell>
                <mxCell id="88" value="" style="ellipse;fillColor=strokeColor;html=1;" parent="1" vertex="1">
                    <mxGeometry x="113" y="1469" width="30" height="30" as="geometry"/>
                </mxCell>
                <mxCell id="89" value="Minted" style="ellipse;whiteSpace=wrap;html=1;aspect=fixed;" parent="1" vertex="1">
                    <mxGeometry x="88" y="1739" width="80" height="80" as="geometry"/>
                </mxCell>
                <mxCell id="90" value="" style="edgeStyle=none;html=1;exitX=1;exitY=0.5;exitDx=0;exitDy=0;entryX=0;entryY=0.5;entryDx=0;entryDy=0;rounded=0;curved=0;" parent="1" source="89" target="73" edge="1">
                    <mxGeometry relative="1" as="geometry">
                        <mxPoint x="458" y="1659" as="sourcePoint"/>
                        <mxPoint x="458" y="1749" as="targetPoint"/>
                        <Array as="points">
                            <mxPoint x="293" y="1779"/>
                        </Array>
                    </mxGeometry>
                </mxCell>
                <mxCell id="91" value="FluidLocker.claim()" style="edgeLabel;html=1;align=center;verticalAlign=middle;resizable=0;points=[];" parent="90" vertex="1" connectable="0">
                    <mxGeometry x="-0.0851" y="-4" relative="1" as="geometry">
                        <mxPoint x="5" y="-4" as="offset"/>
                    </mxGeometry>
                </mxCell>
                <mxCell id="96" value="" style="curved=1;endArrow=classic;html=1;exitX=0.173;exitY=0.06;exitDx=0;exitDy=0;fontStyle=1;entryX=1;entryY=1;entryDx=0;entryDy=0;exitPerimeter=0;" edge="1" parent="1" source="75" target="79">
                    <mxGeometry width="50" height="50" relative="1" as="geometry">
                        <mxPoint x="680" y="1817" as="sourcePoint"/>
                        <mxPoint x="490" y="1813" as="targetPoint"/>
                        <Array as="points">
                            <mxPoint x="638" y="1609"/>
                        </Array>
                    </mxGeometry>
                </mxCell>
                <mxCell id="97" value="FluidLocker.&lt;span style=&quot;color: rgb(0, 0, 0);&quot;&gt;withdrawLiquidity()&lt;/span&gt;&lt;div&gt;&lt;span style=&quot;color: rgb(0, 0, 0);&quot;&gt;(tax free withdraw)&lt;/span&gt;&lt;/div&gt;" style="edgeLabel;html=1;align=center;verticalAlign=middle;resizable=0;points=[];" vertex="1" connectable="0" parent="96">
                    <mxGeometry x="0.4167" y="-28" relative="1" as="geometry">
                        <mxPoint x="61" y="78" as="offset"/>
                    </mxGeometry>
                </mxCell>
            </root>
        </mxGraphModel>
    </diagram>
</mxfile>